<?xml version="1.0" encoding="utf-8"?>
<!-- Generator: Adobe Illustrator 16.0.0, SVG Export Plug-In . SVG Version: 6.00 Build 0)  -->
<!DOCTYPE svg PUBLIC "-//W3C//DTD SVG 1.1//EN" "http://www.w3.org/Graphics/SVG/1.1/DTD/svg11.dtd">
<svg version="1.1" id="Layer_1" xmlns="http://www.w3.org/2000/svg" xmlns:xlink="http://www.w3.org/1999/xlink" x="0px" y="0px"
	 width="136.913px" height="136.914px" viewBox="0 0 136.913 136.914" enable-background="new 0 0 136.913 136.914"
	 xml:space="preserve">
<g>
	<g>
		<g>
			<circle fill="#B9E8EA" cx="68.455" cy="68.457" r="63.333"/>
		</g>
	</g>
	<g>
		<g>
			<g>
				<path fill="#A0D2DC" d="M16.858,105.159c11.482,16.112,30.306,26.631,51.597,26.631c21.293,0,40.116-10.519,51.599-26.631
					H16.858z"/>
			</g>
		</g>
		<g>
			<g>
				<path fill="#95A362" d="M131.71,65.313h-3.141c0,0-11.715-29.222-20.5-29.222c-8.787,0-21.337,29.222-21.337,29.222h-46.86
					c0,0-12.132-19.658-19.663-19.658c-3.944,0-9.494,5.394-13.887,10.531c-0.78,3.971-1.199,8.072-1.199,12.271
					c0,13.685,4.355,26.346,11.735,36.702h103.195c7.38-10.356,11.735-23.017,11.735-36.702
					C131.789,67.402,131.761,66.354,131.71,65.313z"/>
			</g>
		</g>
	</g>
	<g>
		<g>
			<path fill="#CCA57A" d="M131.697,65.078l-11.743,7.833l-11.787-7.833c0,0-20.225-38.746-35.394-38.746
				c-15.171,0-36.838,38.746-36.838,38.746l-11.315,10.5l-9.666-6c-3.334,0-8.535,12.208-7.563,15.735
				c7.38,26.795,31.925,46.478,61.064,46.478c34.979,0,63.334-28.356,63.334-63.333C131.789,67.323,131.756,66.197,131.697,65.078z"
				/>
		</g>
	</g>
	<g>
		<g>
			<g>
				<g>
					<g>
						<g>
							<rect x="45.677" y="61.361" fill="#EADCDA" width="4.671" height="8.671"/>
						</g>
					</g>
					<g>
						<g>
							<g>
								<path fill="#827F7F" d="M50.489,61.503c-2.432-5.623-2.46-9.451-2.449-10.025h-0.062c0.012,0.574-0.017,4.403-2.449,10.025
									H50.489z"/>
							</g>
						</g>
					</g>
					<g>
						<g>
							<polygon fill="#EADCDA" points="50.438,69.814 45.604,69.814 44.627,70.25 44.6,70.956 45.387,72.476 45.387,97.35 
								50.926,97.35 50.926,72.53 51.524,70.792 51.524,70.086 							"/>
						</g>
					</g>
					<g>
						<g>
							<polygon fill="#DDD3D3" points="50.438,69.814 45.604,69.814 44.627,70.25 44.6,70.956 45.387,72.476 50.926,72.458 
								51.524,70.792 51.524,70.086 							"/>
						</g>
					</g>
				</g>
				<g>
					<g>
						<g>
							<rect x="45.159" y="62.48" fill="#DDD3D3" width="5.782" height="1.955"/>
						</g>
					</g>
					<g>
						<g>
							<polygon fill="#DDD3D3" points="45.159,64.435 45.753,66.282 50.348,66.282 50.941,64.435 							"/>
						</g>
					</g>
				</g>
			</g>
			<g>
				<g>
					<g>
						<g>
							<rect x="69.805" y="67.388" fill="#EADCDA" width="7.345" height="13.637"/>
						</g>
					</g>
					<g>
						<g>
							<g>
								<path fill="#D8D8D8" d="M73.421,51.724l0.004,0.119C73.424,51.765,73.421,51.724,73.421,51.724z"/>
							</g>
						</g>
						<g>
							<g>
								<path fill="#D8D8D8" d="M73.521,51.843l0.004-0.119C73.524,51.724,73.521,51.765,73.521,51.843z"/>
							</g>
						</g>
						<g>
							<g>
								<path fill="#827F7F" d="M77.373,67.61c-3.825-8.843-3.87-14.864-3.853-15.767h-0.096c0.018,0.903-0.026,6.924-3.853,15.767
									H77.373z"/>
							</g>
						</g>
					</g>
					<g>
						<g>
							<polygon fill="#EADCDA" points="77.293,80.684 69.69,80.684 68.152,81.366 68.11,82.477 69.349,84.869 69.349,95.631 
								78.061,95.631 78.061,84.954 79.001,82.221 79.001,81.11 							"/>
						</g>
					</g>
					<g>
						<g>
							<polygon fill="#DDD3D3" points="77.293,80.684 69.69,80.684 68.152,81.366 68.11,82.477 69.349,84.869 78.061,84.84 
								79.001,82.221 79.001,81.11 							"/>
						</g>
					</g>
				</g>
				<g>
					<g>
						<g>
							<rect x="68.989" y="69.147" fill="#DDD3D3" width="9.096" height="3.074"/>
						</g>
					</g>
					<g>
						<g>
							<polygon fill="#DDD3D3" points="68.989,72.222 69.924,75.126 77.149,75.126 78.085,72.222 							"/>
						</g>
					</g>
				</g>
			</g>
			<g>
				<g>
					<g>
						<g>
							<rect x="64.058" y="32.523" fill="#EADCDA" width="8.703" height="16.156"/>
						</g>
					</g>
					<g>
						<g>
							<g>
								<path fill="#D8D8D8" d="M68.343,13.966l0.005,0.141C68.346,14.014,68.343,13.966,68.343,13.966z"/>
							</g>
						</g>
						<g>
							<g>
								<path fill="#D8D8D8" d="M68.461,14.107l0.005-0.141C68.466,13.966,68.463,14.014,68.461,14.107z"/>
							</g>
						</g>
						<g>
							<g>
								<path fill="#827F7F" d="M73.025,32.787c-4.532-10.476-4.585-17.609-4.564-18.68h-0.113c0.02,1.071-0.032,8.204-4.563,18.68
									H73.025z"/>
							</g>
						</g>
					</g>
					<g>
						<g>
							<polygon fill="#EADCDA" points="72.93,48.274 63.923,48.274 62.103,49.084 62.051,50.399 63.519,53.232 63.519,65.982 
								73.84,65.982 73.84,53.333 74.952,50.096 74.952,48.78 							"/>
						</g>
					</g>
					<g>
						<g>
							<polygon fill="#DDD3D3" points="72.93,48.274 63.923,48.274 62.103,49.084 62.051,50.399 63.519,53.232 73.84,53.199 
								74.952,50.096 74.952,48.78 							"/>
						</g>
					</g>
				</g>
				<g>
					<g>
						<g>
							<rect x="63.092" y="34.607" fill="#DDD3D3" width="10.776" height="3.643"/>
						</g>
					</g>
					<g>
						<g>
							<polygon fill="#DDD3D3" points="63.092,38.25 64.199,41.691 72.761,41.691 73.868,38.25 							"/>
						</g>
					</g>
				</g>
			</g>
			<g>
				<g>
					<g>
						<g>
							<rect x="64.058" y="32.523" fill="#EADCDA" width="8.703" height="16.156"/>
						</g>
					</g>
					<g>
						<g>
							<g>
								<path fill="#D8D8D8" d="M68.343,13.966l0.005,0.141C68.346,14.014,68.343,13.966,68.343,13.966z"/>
							</g>
						</g>
						<g>
							<g>
								<path fill="#D8D8D8" d="M68.461,14.107l0.005-0.141C68.466,13.966,68.463,14.014,68.461,14.107z"/>
							</g>
						</g>
						<g>
							<g>
								<path fill="#827F7F" d="M73.025,32.787c-4.532-10.476-4.585-17.609-4.564-18.68h-0.113c0.02,1.071-0.032,8.204-4.563,18.68
									H73.025z"/>
							</g>
						</g>
					</g>
					<g>
						<g>
							<polygon fill="#EADCDA" points="72.93,48.274 63.923,48.274 62.103,49.084 62.051,50.399 63.519,53.232 63.519,65.982 
								73.84,65.982 73.84,53.333 74.952,50.096 74.952,48.78 							"/>
						</g>
					</g>
					<g>
						<g>
							<polygon fill="#DDD3D3" points="72.93,48.274 63.923,48.274 62.103,49.084 62.051,50.399 63.519,53.232 73.84,53.199 
								74.952,50.096 74.952,48.78 							"/>
						</g>
					</g>
				</g>
				<g>
					<g>
						<g>
							<rect x="63.092" y="34.607" fill="#DDD3D3" width="10.776" height="3.643"/>
						</g>
					</g>
					<g>
						<g>
							<polygon fill="#DDD3D3" points="63.092,38.25 64.199,41.691 72.761,41.691 73.868,38.25 							"/>
						</g>
					</g>
				</g>
			</g>
			<g>
				<g>
					<g>
						<g>
							<rect x="38.769" y="48.941" fill="#EADCDA" width="6.309" height="11.712"/>
						</g>
					</g>
					<g>
						<g>
							<g>
								<path fill="#827F7F" d="M45.27,49.133c-3.285-7.594-3.323-12.766-3.309-13.542h-0.082c0.015,0.775-0.023,5.947-3.309,13.542
									H45.27z"/>
							</g>
						</g>
					</g>
					<g>
						<g>
							<polygon fill="#EADCDA" points="45.2,60.36 38.671,60.36 37.351,60.947 37.314,61.9 38.378,63.955 38.378,97.553 
								45.86,97.553 45.86,64.028 46.667,61.68 46.667,60.727 							"/>
						</g>
					</g>
					<g>
						<g>
							<polygon fill="#DDD3D3" points="45.2,60.36 38.671,60.36 37.351,60.947 37.314,61.9 38.378,63.955 45.86,63.93 46.667,61.68 
								46.667,60.727 							"/>
						</g>
					</g>
				</g>
				<g>
					<g>
						<g>
							<rect x="38.068" y="50.453" fill="#DDD3D3" width="7.813" height="2.641"/>
						</g>
					</g>
					<g>
						<g>
							<polygon fill="#DDD3D3" points="38.068,53.093 38.872,55.587 45.077,55.587 45.881,53.093 							"/>
						</g>
					</g>
				</g>
			</g>
			<g>
				<g>
					<g>
						<g>
							<rect x="31.51" y="67.432" fill="#EADCDA" width="4.671" height="8.671"/>
						</g>
					</g>
					<g>
						<g>
							<g>
								<path fill="#827F7F" d="M36.324,67.574c-2.434-5.623-2.461-9.451-2.451-10.025h-0.061c0.011,0.575-0.018,4.403-2.449,10.025
									H36.324z"/>
							</g>
						</g>
					</g>
					<g>
						<g>
							<polygon fill="#EADCDA" points="36.271,75.886 31.438,75.886 30.46,76.321 30.434,77.027 31.221,78.547 31.221,103.422 
								36.761,103.422 36.761,78.602 37.357,76.864 37.357,76.158 							"/>
						</g>
					</g>
					<g>
						<g>
							<polygon fill="#DDD3D3" points="36.271,75.886 31.438,75.886 30.46,76.321 30.434,77.027 31.221,78.547 36.761,78.529 
								37.357,76.864 37.357,76.158 							"/>
						</g>
					</g>
				</g>
				<g>
					<g>
						<g>
							<rect x="30.992" y="68.551" fill="#DDD3D3" width="5.784" height="1.955"/>
						</g>
					</g>
					<g>
						<g>
							<polygon fill="#DDD3D3" points="30.992,70.506 31.586,72.353 36.181,72.353 36.776,70.506 							"/>
						</g>
					</g>
				</g>
			</g>
			<g>
				<g>
					<g>
						<rect x="45.456" y="73.015" fill="#F2E9E9" width="27.068" height="23.88"/>
					</g>
				</g>
				<g>
					<g>
						<g>
							<g>
								<path fill="#473D48" d="M52.201,77.839c-0.236,0-0.428,0.197-0.428,0.439v1.952c0,0.243,0.191,0.44,0.428,0.44
									c0.237,0,0.43-0.197,0.43-0.44v-1.952C52.631,78.036,52.438,77.839,52.201,77.839z"/>
							</g>
						</g>
						<g>
							<g>
								<path fill="#473D48" d="M54.703,77.839c-0.236,0-0.429,0.197-0.429,0.439v1.952c0,0.243,0.192,0.44,0.429,0.44
									c0.237,0,0.429-0.197,0.429-0.44v-1.952C55.132,78.036,54.94,77.839,54.703,77.839z"/>
							</g>
						</g>
						<g>
							<g>
								<path fill="#473D48" d="M53.446,77.856c-0.237,0-0.428,0.197-0.428,0.44v1.952c0,0.243,0.19,0.44,0.428,0.44
									s0.43-0.197,0.43-0.44v-1.952C53.876,78.054,53.684,77.856,53.446,77.856z"/>
							</g>
						</g>
					</g>
					<g>
						<g>
							<g>
								<path fill="#473D48" d="M62.961,77.839c-0.236,0-0.429,0.197-0.429,0.439v1.952c0,0.243,0.192,0.44,0.429,0.44
									c0.237,0,0.43-0.197,0.43-0.44v-1.952C63.391,78.036,63.198,77.839,62.961,77.839z"/>
							</g>
						</g>
						<g>
							<g>
								<path fill="#473D48" d="M65.463,77.839c-0.237,0-0.43,0.197-0.43,0.439v1.952c0,0.243,0.192,0.44,0.43,0.44
									s0.429-0.197,0.429-0.44v-1.952C65.892,78.036,65.7,77.839,65.463,77.839z"/>
							</g>
						</g>
						<g>
							<g>
								<path fill="#473D48" d="M64.207,77.856c-0.237,0-0.43,0.197-0.43,0.44v1.952c0,0.243,0.192,0.44,0.43,0.44
									c0.236,0,0.429-0.197,0.429-0.44v-1.952C64.636,78.054,64.443,77.856,64.207,77.856z"/>
							</g>
						</g>
					</g>
					<g>
						<g>
							<g>
								<path fill="#473D48" d="M58.205,77.839c-0.236,0-0.429,0.197-0.429,0.439v1.952c0,0.243,0.192,0.44,0.429,0.44
									c0.237,0,0.43-0.197,0.43-0.44v-1.952C58.635,78.036,58.442,77.839,58.205,77.839z"/>
							</g>
						</g>
						<g>
							<g>
								<path fill="#473D48" d="M59.451,77.856c-0.237,0-0.43,0.197-0.43,0.44v1.952c0,0.243,0.192,0.44,0.43,0.44
									s0.429-0.197,0.429-0.44v-1.952C59.88,78.054,59.688,77.856,59.451,77.856z"/>
							</g>
						</g>
					</g>
				</g>
				<g>
					<g>
						<g>
							<g>
								<path fill="#473D48" d="M52.201,84.112c-0.236,0-0.428,0.197-0.428,0.44v1.952c0,0.243,0.191,0.44,0.428,0.44
									c0.237,0,0.43-0.197,0.43-0.44v-1.952C52.631,84.309,52.438,84.112,52.201,84.112z"/>
							</g>
						</g>
						<g>
							<g>
								<path fill="#473D48" d="M54.703,84.112c-0.236,0-0.429,0.197-0.429,0.44v1.952c0,0.243,0.192,0.44,0.429,0.44
									c0.237,0,0.429-0.197,0.429-0.44v-1.952C55.132,84.309,54.94,84.112,54.703,84.112z"/>
							</g>
						</g>
						<g>
							<g>
								<path fill="#473D48" d="M53.446,84.13c-0.237,0-0.428,0.197-0.428,0.439v1.952c0,0.243,0.19,0.44,0.428,0.44
									s0.43-0.197,0.43-0.44V84.57C53.876,84.328,53.684,84.13,53.446,84.13z"/>
							</g>
						</g>
					</g>
					<g>
						<g>
							<g>
								<path fill="#473D48" d="M62.961,84.112c-0.236,0-0.429,0.197-0.429,0.44v1.952c0,0.243,0.192,0.44,0.429,0.44
									c0.237,0,0.43-0.197,0.43-0.44v-1.952C63.391,84.309,63.198,84.112,62.961,84.112z"/>
							</g>
						</g>
						<g>
							<g>
								<path fill="#473D48" d="M65.463,84.112c-0.237,0-0.43,0.197-0.43,0.44v1.952c0,0.243,0.192,0.44,0.43,0.44
									s0.429-0.197,0.429-0.44v-1.952C65.892,84.309,65.7,84.112,65.463,84.112z"/>
							</g>
						</g>
						<g>
							<g>
								<path fill="#473D48" d="M64.207,84.13c-0.237,0-0.43,0.197-0.43,0.439v1.952c0,0.243,0.192,0.44,0.43,0.44
									c0.236,0,0.429-0.197,0.429-0.44V84.57C64.636,84.328,64.443,84.13,64.207,84.13z"/>
							</g>
						</g>
					</g>
					<g>
						<g>
							<g>
								<path fill="#473D48" d="M58.205,84.112c-0.236,0-0.429,0.197-0.429,0.44v1.952c0,0.243,0.192,0.44,0.429,0.44
									c0.237,0,0.43-0.197,0.43-0.44v-1.952C58.635,84.309,58.442,84.112,58.205,84.112z"/>
							</g>
						</g>
						<g>
							<g>
								<path fill="#473D48" d="M59.451,84.13c-0.237,0-0.43,0.197-0.43,0.439v1.952c0,0.243,0.192,0.44,0.43,0.44
									s0.429-0.197,0.429-0.44V84.57C59.88,84.328,59.688,84.13,59.451,84.13z"/>
							</g>
						</g>
					</g>
				</g>
				<g>
					<g>
						<g>
							<rect x="67.431" y="65.51" fill="#EADCDA" width="5.127" height="7.623"/>
						</g>
					</g>
					<g>
						<g>
							<g>
								<rect x="67.431" y="65.105" fill="#E2CCC7" width="5.127" height="0.405"/>
							</g>
						</g>
						<g>
							<g>
								<rect x="72.103" y="64.228" fill="#E2CCC7" width="0.405" height="1.248"/>
							</g>
						</g>
						<g>
							<g>
								<rect x="71.31" y="64.228" fill="#E2CCC7" width="0.574" height="1.248"/>
							</g>
						</g>
						<g>
							<g>
								<rect x="69.91" y="64.229" fill="#E2CCC7" width="0.962" height="1.248"/>
							</g>
						</g>
						<g>
							<g>
								<rect x="68.409" y="64.229" fill="#E2CCC7" width="0.962" height="1.248"/>
							</g>
						</g>
					</g>
				</g>
				<g>
					<g>
						<g>
							<rect x="45.456" y="65.51" fill="#EADCDA" width="5.127" height="7.623"/>
						</g>
					</g>
					<g>
						<g>
							<g>
								<rect x="45.456" y="65.105" fill="#E2CCC7" width="5.127" height="0.405"/>
							</g>
						</g>
						<g>
							<g>
								<rect x="45.507" y="64.228" fill="#E2CCC7" width="0.404" height="1.248"/>
							</g>
						</g>
						<g>
							<g>
								<rect x="46.131" y="64.228" fill="#E2CCC7" width="0.573" height="1.248"/>
							</g>
						</g>
						<g>
							<g>
								<rect x="47.143" y="64.229" fill="#E2CCC7" width="0.961" height="1.248"/>
							</g>
						</g>
						<g>
							<g>
								<rect x="48.645" y="64.229" fill="#E2CCC7" width="0.961" height="1.248"/>
							</g>
						</g>
					</g>
				</g>
				<g>
					<g>
						<g>
							<rect x="51.831" y="61.631" fill="#F2E9E9" width="14.062" height="11.434"/>
						</g>
					</g>
					<g>
						<g>
							<polygon fill="#EADCDA" points="59.011,47.357 49.298,61.624 68.725,61.624 							"/>
						</g>
					</g>
					<g>
						<g>
							<polygon fill="#EADCDA" points="49.298,61.53 50.061,64.464 50.061,73.065 52.084,73.065 52.084,61.53 							"/>
						</g>
					</g>
					<g>
						<g>
							<polygon fill="#EADCDA" points="65.893,61.53 65.893,73.065 67.916,73.065 67.916,64.464 68.679,61.53 							"/>
						</g>
					</g>
				</g>
			</g>
			<g>
				<g>
					<g>
						<rect x="80.788" y="45.34" fill="#D8D8D8" width="12.143" height="11.063"/>
					</g>
				</g>
				<g>
					<g>
						<path fill="#D8D8D8" d="M79.236,38.762c0,0,0.135,7.522,1.552,7.522h12.143c1.552,0,1.552-7.522,1.552-7.522H79.236z"/>
					</g>
				</g>
				<g>
					<g>
						<path fill="#827F7F" d="M86.779,30.6c0,0-7.399,8.298-8.745,8.298H95.75C94.18,38.898,86.779,30.6,86.779,30.6z"/>
					</g>
				</g>
				<g>
					<g>
						<polygon fill="#F2E9E9" points="78.899,55.256 77.077,56.572 77.077,61.833 79.202,67.5 81.023,66.185 						"/>
					</g>
				</g>
				<g>
					<g>
						<rect x="78.595" y="65.881" fill="#D8D8D8" width="16.696" height="23.678"/>
					</g>
				</g>
				<g>
					<g>
						<rect x="78.595" y="65.881" fill="#F2E9E9" width="2.328" height="23.678"/>
					</g>
				</g>
				<g>
					<g>
						<path fill="#F2E9E9" d="M96.56,98.664l-0.788-10.497c-0.005-0.078-0.069-0.137-0.146-0.137H78.924
							c-0.082,0-0.148,0.066-0.148,0.148v10.521c0,0.082,0.066,0.148,0.148,0.148h17.49c0.001,0,0.001,0,0.002,0
							c0.081,0,0.147-0.066,0.147-0.148C96.563,98.687,96.562,98.674,96.56,98.664z"/>
					</g>
				</g>
				<g>
					<g>
						<polygon fill="#D8D8D8" points="78.899,55.256 78.899,60.518 81.023,66.185 95.241,66.185 97.366,60.518 97.366,55.256 						
							"/>
					</g>
				</g>
				<g>
					<g>
						<polygon fill="#BAB6B6" points="78.626,54.376 77.077,55.534 77.077,56.581 80.173,54.376 						"/>
					</g>
				</g>
				<g>
					<g>
						<rect x="78.873" y="54.371" fill="#BAB6B6" width="18.493" height="0.885"/>
					</g>
				</g>
			</g>
			<g>
				<g>
					<polygon fill="#E2CCC7" points="78.393,88.513 77.381,87.569 77.381,86.152 75.762,86.152 75.762,84.061 73.873,84.061 
						73.873,82.038 72.052,82.038 72.052,80.148 70.433,80.148 70.433,78.058 68.442,78.058 68.442,80.148 66.824,80.148 
						66.824,82.038 65.002,82.038 65.002,84.061 63.114,84.061 63.114,86.152 61.495,86.152 61.495,87.569 60.482,88.513 
						54.411,88.513 54.411,96.811 84.464,96.811 84.464,88.513 					"/>
				</g>
			</g>
			<g>
				<g>
					<rect x="56.233" y="91.077" fill="#A34430" width="26.307" height="8.398"/>
				</g>
			</g>
			<g>
				<g>
					<g>
						<rect x="35.183" y="96.835" fill="#99908F" width="63.29" height="4.856"/>
					</g>
				</g>
				<g>
					<g>
						<g>
							<rect x="82.54" y="99.476" fill="#E2CCC7" width="16.394" height="21.148"/>
						</g>
					</g>
					<g>
						<g>
							<rect x="83.621" y="100.533" fill="#A34430" width="14.231" height="19.033"/>
						</g>
					</g>
					<g>
						<g>
							<g>
								<g>
									<path fill="#473D48" d="M86.28,103.942c-0.382,0-0.692,0.217-0.692,0.484v2.146c0,0.267,0.311,0.484,0.692,0.484
										c0.383,0,0.693-0.217,0.693-0.484v-2.146C86.974,104.159,86.663,103.942,86.28,103.942z"/>
								</g>
							</g>
							<g>
								<g>
									<g>
										<path fill="#473D48" d="M87.833,103.962c-0.383,0-0.692,0.217-0.692,0.484v2.146c0,0.268,0.31,0.484,0.692,0.484
											c0.382,0,0.692-0.216,0.692-0.484v-2.146C88.525,104.179,88.215,103.962,87.833,103.962z"/>
									</g>
								</g>
								<g>
									<g>
										<path fill="#E0E0E0" d="M87.833,103.726c-0.323,0-0.603,0.122-0.768,0.311c-0.163-0.2-0.451-0.33-0.785-0.33
											c-0.52,0-0.928,0.315-0.928,0.72v2.146c0,0.404,0.408,0.72,0.928,0.72c0.323,0,0.603-0.122,0.769-0.31
											c0.163,0.2,0.45,0.33,0.784,0.33c0.521,0,0.929-0.316,0.929-0.72v-2.146C88.762,104.042,88.354,103.726,87.833,103.726z
											 M86.736,106.572c0,0.115-0.198,0.248-0.456,0.248c-0.256,0-0.455-0.133-0.455-0.248v-2.146
											c0-0.114,0.199-0.248,0.455-0.248c0.258,0,0.456,0.133,0.456,0.248V106.572z M88.289,106.592
											c0,0.117-0.195,0.248-0.456,0.248s-0.456-0.131-0.456-0.248v-2.146c0-0.117,0.195-0.248,0.456-0.248
											c0.257,0,0.456,0.133,0.456,0.248V106.592z"/>
									</g>
								</g>
							</g>
						</g>
						<g>
							<g>
								<path fill="#E0E0E0" d="M89.585,103.872c-0.036-0.052-0.909-1.271-2.573-1.271c-1.688,0-2.33,1.247-2.357,1.3
									c-0.058,0.117-0.011,0.259,0.106,0.317c0.034,0.017,0.069,0.025,0.105,0.025c0.087,0,0.17-0.048,0.211-0.13
									c0.006-0.01,0.537-1.04,1.935-1.04c1.413,0,2.156,1.026,2.187,1.069c0.075,0.107,0.223,0.133,0.329,0.059
									C89.634,104.126,89.66,103.979,89.585,103.872z"/>
							</g>
						</g>
					</g>
					<g>
						<g>
							<g>
								<g>
									<path fill="#473D48" d="M93.402,103.942c-0.382,0-0.692,0.217-0.692,0.484v2.146c0,0.267,0.311,0.484,0.692,0.484
										s0.692-0.217,0.692-0.484v-2.146C94.095,104.159,93.784,103.942,93.402,103.942z"/>
								</g>
							</g>
							<g>
								<g>
									<g>
										<path fill="#473D48" d="M94.954,103.962c-0.382,0-0.691,0.217-0.691,0.484v2.146c0,0.268,0.31,0.484,0.691,0.484
											c0.383,0,0.692-0.216,0.692-0.484v-2.146C95.646,104.179,95.337,103.962,94.954,103.962z"/>
									</g>
								</g>
								<g>
									<g>
										<path fill="#E0E0E0" d="M94.954,103.726c-0.323,0-0.603,0.122-0.768,0.311c-0.163-0.2-0.45-0.33-0.784-0.33
											c-0.521,0-0.929,0.315-0.929,0.72v2.146c0,0.404,0.408,0.72,0.929,0.72c0.322,0,0.602-0.122,0.768-0.31
											c0.164,0.2,0.45,0.33,0.784,0.33c0.521,0,0.929-0.316,0.929-0.72v-2.146C95.883,104.042,95.476,103.726,94.954,103.726z
											 M93.857,106.572c0,0.115-0.198,0.248-0.455,0.248s-0.456-0.133-0.456-0.248v-2.146c0-0.114,0.199-0.248,0.456-0.248
											s0.455,0.133,0.455,0.248V106.572z M95.41,106.592c0,0.117-0.195,0.248-0.456,0.248s-0.456-0.131-0.456-0.248v-2.146
											c0-0.117,0.195-0.248,0.456-0.248c0.257,0,0.456,0.133,0.456,0.248V106.592z"/>
									</g>
								</g>
							</g>
						</g>
						<g>
							<g>
								<path fill="#E0E0E0" d="M96.707,103.872c-0.037-0.052-0.909-1.271-2.574-1.271c-1.686,0-2.329,1.247-2.355,1.3
									c-0.059,0.117-0.013,0.259,0.104,0.317c0.034,0.017,0.071,0.025,0.105,0.025c0.087,0,0.171-0.048,0.212-0.13
									c0.005-0.01,0.536-1.04,1.934-1.04c1.413,0,2.156,1.026,2.187,1.069c0.075,0.107,0.223,0.133,0.329,0.059
									C96.755,104.126,96.781,103.979,96.707,103.872z"/>
							</g>
						</g>
					</g>
				</g>
				<g>
					<g>
						<g>
							<rect x="39.838" y="99.476" fill="#E2CCC7" width="16.396" height="21.148"/>
						</g>
					</g>
					<g>
						<g>
							<rect x="40.92" y="100.533" fill="#A34430" width="14.231" height="19.033"/>
						</g>
					</g>
					<g>
						<g>
							<g>
								<g>
									<path fill="#473D48" d="M43.58,103.942c-0.383,0-0.692,0.217-0.692,0.484v2.146c0,0.267,0.31,0.484,0.692,0.484
										c0.382,0,0.691-0.217,0.691-0.484v-2.146C44.271,104.159,43.962,103.942,43.58,103.942z"/>
								</g>
							</g>
							<g>
								<g>
									<g>
										<path fill="#473D48" d="M45.132,103.962c-0.383,0-0.692,0.217-0.692,0.484v2.146c0,0.268,0.31,0.484,0.692,0.484
											c0.382,0,0.691-0.216,0.691-0.484v-2.146C45.823,104.179,45.514,103.962,45.132,103.962z"/>
									</g>
								</g>
								<g>
									<g>
										<path fill="#E0E0E0" d="M45.132,103.726c-0.323,0-0.603,0.122-0.769,0.311c-0.163-0.2-0.45-0.33-0.783-0.33
											c-0.521,0-0.929,0.315-0.929,0.72v2.146c0,0.404,0.407,0.72,0.929,0.72c0.322,0,0.602-0.122,0.767-0.31
											c0.164,0.2,0.45,0.33,0.785,0.33c0.521,0,0.928-0.316,0.928-0.72v-2.146C46.06,104.042,45.652,103.726,45.132,103.726z
											 M44.035,106.572c0,0.115-0.199,0.248-0.455,0.248c-0.258,0-0.456-0.133-0.456-0.248v-2.146
											c0-0.114,0.198-0.248,0.456-0.248c0.256,0,0.455,0.133,0.455,0.248V106.572z M45.587,106.592
											c0,0.117-0.194,0.248-0.455,0.248c-0.262,0-0.456-0.131-0.456-0.248v-2.146c0-0.117,0.194-0.248,0.456-0.248
											c0.257,0,0.455,0.133,0.455,0.248V106.592z"/>
									</g>
								</g>
							</g>
						</g>
						<g>
							<g>
								<path fill="#E0E0E0" d="M46.884,103.872c-0.036-0.052-0.909-1.271-2.573-1.271c-1.687,0-2.33,1.247-2.356,1.3
									c-0.059,0.117-0.011,0.259,0.105,0.317c0.033,0.017,0.07,0.025,0.105,0.025c0.086,0,0.17-0.048,0.212-0.13
									c0.004-0.01,0.535-1.04,1.934-1.04c1.412,0,2.155,1.026,2.186,1.069c0.075,0.107,0.223,0.133,0.33,0.059
									C46.933,104.126,46.959,103.979,46.884,103.872z"/>
							</g>
						</g>
					</g>
					<g>
						<g>
							<g>
								<g>
									<path fill="#473D48" d="M50.701,103.942c-0.383,0-0.692,0.217-0.692,0.484v2.146c0,0.267,0.31,0.484,0.692,0.484
										c0.382,0,0.692-0.217,0.692-0.484v-2.146C51.394,104.159,51.083,103.942,50.701,103.942z"/>
								</g>
							</g>
							<g>
								<g>
									<g>
										<path fill="#473D48" d="M52.253,103.962c-0.383,0-0.692,0.217-0.692,0.484v2.146c0,0.268,0.31,0.484,0.692,0.484
											s0.692-0.216,0.692-0.484v-2.146C52.945,104.179,52.636,103.962,52.253,103.962z"/>
									</g>
								</g>
								<g>
									<g>
										<path fill="#E0E0E0" d="M52.253,103.726c-0.322,0-0.603,0.122-0.768,0.311c-0.163-0.2-0.451-0.33-0.784-0.33
											c-0.521,0-0.93,0.315-0.93,0.72v2.146c0,0.404,0.408,0.72,0.93,0.72c0.322,0,0.602-0.122,0.768-0.31
											c0.163,0.2,0.45,0.33,0.784,0.33c0.521,0,0.928-0.316,0.928-0.72v-2.146C53.181,104.042,52.773,103.726,52.253,103.726z
											 M51.157,106.572c0,0.115-0.2,0.248-0.456,0.248c-0.258,0-0.456-0.133-0.456-0.248v-2.146
											c0-0.114,0.198-0.248,0.456-0.248c0.256,0,0.456,0.133,0.456,0.248V106.572z M52.709,106.592
											c0,0.117-0.195,0.248-0.456,0.248s-0.456-0.131-0.456-0.248v-2.146c0-0.117,0.195-0.248,0.456-0.248
											c0.257,0,0.456,0.133,0.456,0.248V106.592z"/>
									</g>
								</g>
							</g>
						</g>
						<g>
							<g>
								<path fill="#E0E0E0" d="M54.005,103.872c-0.036-0.052-0.908-1.271-2.573-1.271c-1.687,0-2.33,1.247-2.356,1.3
									c-0.059,0.117-0.011,0.259,0.105,0.317c0.034,0.017,0.07,0.025,0.106,0.025c0.086,0,0.169-0.048,0.21-0.13
									c0.006-0.01,0.536-1.04,1.935-1.04c1.412,0,2.156,1.026,2.188,1.069c0.073,0.107,0.221,0.133,0.328,0.059
									C54.055,104.126,54.08,103.979,54.005,103.872z"/>
							</g>
						</g>
					</g>
				</g>
				<g>
					<g>
						<g>
							<rect x="56.233" y="99.476" fill="#A34430" width="26.307" height="21.148"/>
						</g>
					</g>
					<g>
						<g>
							<g>
								<g>
									<rect x="57.514" y="104.737" fill="#E2CCC7" width="1.822" height="3.542"/>
								</g>
							</g>
							<g>
								<g>
									<rect x="57.92" y="105.524" fill="#392524" width="1.011" height="1.968"/>
								</g>
							</g>
						</g>
						<g>
							<g>
								<g>
									<rect x="57.514" y="113.321" fill="#E2CCC7" width="1.822" height="3.542"/>
								</g>
							</g>
							<g>
								<g>
									<rect x="57.92" y="114.108" fill="#392524" width="1.011" height="1.967"/>
								</g>
							</g>
						</g>
						<g>
							<g>
								<g>
									<rect x="43.398" y="113.321" fill="#E2CCC7" width="1.822" height="3.542"/>
								</g>
							</g>
							<g>
								<g>
									<rect x="43.804" y="114.108" fill="#392524" width="1.012" height="1.967"/>
								</g>
							</g>
						</g>
						<g>
							<g>
								<g>
									<rect x="50.566" y="113.321" fill="#E2CCC7" width="1.821" height="3.542"/>
								</g>
							</g>
							<g>
								<g>
									<rect x="50.971" y="114.108" fill="#392524" width="1.012" height="1.967"/>
								</g>
							</g>
						</g>
						<g>
							<g>
								<g>
									<rect x="79.506" y="104.737" fill="#E2CCC7" width="1.822" height="3.542"/>
								</g>
							</g>
							<g>
								<g>
									<rect x="79.91" y="105.524" fill="#392524" width="1.013" height="1.968"/>
								</g>
							</g>
						</g>
						<g>
							<g>
								<g>
									<rect x="79.506" y="113.321" fill="#E2CCC7" width="1.822" height="3.542"/>
								</g>
							</g>
							<g>
								<g>
									<rect x="79.91" y="114.108" fill="#392524" width="1.013" height="1.967"/>
								</g>
							</g>
						</g>
						<g>
							<g>
								<g>
									<rect x="93.217" y="113.321" fill="#E2CCC7" width="1.822" height="3.542"/>
								</g>
							</g>
							<g>
								<g>
									<rect x="93.621" y="114.108" fill="#392524" width="1.013" height="1.967"/>
								</g>
							</g>
						</g>
						<g>
							<g>
								<g>
									<rect x="86.286" y="113.321" fill="#E2CCC7" width="1.82" height="3.542"/>
								</g>
							</g>
							<g>
								<g>
									<rect x="86.69" y="114.108" fill="#392524" width="1.012" height="1.967"/>
								</g>
							</g>
						</g>
					</g>
				</g>
				<g>
					<g>
						<g>
							<g>
								<path fill="#E2CCC7" d="M79.523,102.283c0-1.315,0-5.236,0-5.236H59.319c0,0,0,3.921,0,5.236
									c0,1.315,2.074,2.504,2.074,2.504v5.465l-1.265,1.518c0,0-0.557,0.455-0.557,1.315v7.488H79.27v-7.488
									c0-0.86-0.557-1.315-0.557-1.315l-1.264-1.518v-5.465C77.449,104.788,79.523,103.599,79.523,102.283z"/>
							</g>
						</g>
						<g>
							<g>
								<path fill="#DBC9C6" d="M59.319,97.047c0,0,0,3.921,0,5.236c0,1.315,2.074,2.504,2.074,2.504v5.465l-1.265,1.518
									c0,0-0.557,0.455-0.557,1.315v7.488h9.815V97.047H59.319z"/>
							</g>
						</g>
					</g>
					<g>
						<g>
							<path fill="#B7ADAC" d="M66.757,99.34v4.082h1.112c0,0,0.484-0.907,1.61-0.911c1.127,0.004,1.61,0.911,1.61,0.911h1.113
								V99.34H66.757z"/>
						</g>
					</g>
					<g>
						<g>
							<path fill="#CEC0BE" d="M66.757,99.34v4.082h1.112c0,0-0.167-1.546,1.61-1.551c1.779,0.005,1.61,1.551,1.61,1.551h1.113
								V99.34H66.757z"/>
						</g>
					</g>
					<g>
						<g>
							<path fill="#B7ADAC" d="M75.13,97.047c0,0,0,3.921,0,5.236c0,1.315,2.075,2.504,2.075,2.504h0.012
								c0,0,2.074-1.189,2.074-2.504c0-1.315,0-5.236,0-5.236H75.13z"/>
						</g>
					</g>
					<g>
						<g>
							<path fill="#CEC0BE" d="M75.357,97.047c0,0,0,3.921,0,5.236c0,1.315,2.074,2.504,2.074,2.504h0.013
								c0,0,2.074-1.189,2.074-2.504c0-1.315,0-5.236,0-5.236H75.357z"/>
						</g>
					</g>
					<g>
						<g>
							<path fill="#B7ADAC" d="M59.529,97.047c0,0,0,3.921,0,5.236c0,1.315,2.075,2.504,2.075,2.504h0.013
								c0,0,2.074-1.189,2.074-2.504c0-1.315,0-5.236,0-5.236H59.529z"/>
						</g>
					</g>
					<g>
						<g>
							<path fill="#CEC0BE" d="M59.303,97.047c0,0,0,3.921,0,5.236c0,1.315,2.074,2.504,2.074,2.504h0.012
								c0,0,2.075-1.189,2.075-2.504c0-1.315,0-5.236,0-5.236H59.303z"/>
						</g>
					</g>
					<g>
						<g>
							<rect x="73.705" y="104.939" fill="#392524" width="0.641" height="1.62"/>
						</g>
					</g>
					<g>
						<g>
							<rect x="64.463" y="104.939" fill="#392524" width="0.641" height="1.62"/>
						</g>
					</g>
					<g>
						<g>
							<rect x="67.263" y="104.231" fill="#DDC6C3" width="4.283" height="4.553"/>
						</g>
					</g>
					<g>
						<g>
							<rect x="67.263" y="104.737" fill="#E5D2CF" width="4.047" height="4.047"/>
						</g>
					</g>
					<g>
						<g>
							<path fill="#CEC0BE" d="M59.319,97.047c0,0,0,1.139,0,2.395h20.204c0-1.256,0-2.395,0-2.395H59.319z"/>
						</g>
					</g>
					<g>
						<g>
							<path fill="#3F2412" d="M69.52,110.859h-0.164c-2.172,0-3.931,1.759-3.931,3.931v5.834l8.026,0.018v-5.852
								C73.451,112.619,71.69,110.859,69.52,110.859z"/>
						</g>
					</g>
				</g>
			</g>
			<g>
				<g>
					<g>
						<polygon fill="#A34430" points="69.388,82.408 63.787,91.077 74.986,91.077 						"/>
					</g>
				</g>
				<g>
					<g>
						<g>
							<path fill="#A34430" d="M69.363,81.936c-0.325,0-0.59,0.265-0.59,0.591v2.835c0,0.326,0.265,0.591,0.59,0.591
								c0.327,0,0.592-0.265,0.592-0.591v-2.835C69.955,82.201,69.69,81.936,69.363,81.936z"/>
						</g>
					</g>
					<g>
						<g>
							<path fill="#A34430" d="M71.232,84.243c-0.326,0-0.592,0.265-0.592,0.591v2.835c0,0.326,0.266,0.591,0.592,0.591
								c0.325,0,0.59-0.265,0.59-0.591v-2.835C71.822,84.507,71.558,84.243,71.232,84.243z"/>
						</g>
					</g>
					<g>
						<g>
							<path fill="#A34430" d="M72.709,86.464c-0.326,0-0.591,0.265-0.591,0.591v2.835c0,0.327,0.265,0.591,0.591,0.591
								s0.591-0.264,0.591-0.591v-2.835C73.3,86.729,73.035,86.464,72.709,86.464z"/>
						</g>
					</g>
					<g>
						<g>
							<path fill="#A34430" d="M74.191,88.805c-0.325,0-0.59,0.264-0.59,0.591v2.835c0,0.327,0.265,0.591,0.59,0.591
								c0.326,0,0.592-0.265,0.592-0.591v-2.835C74.783,89.069,74.518,88.805,74.191,88.805z"/>
						</g>
					</g>
					<g>
						<g>
							<path fill="#A34430" d="M67.58,84.243c-0.325,0-0.59,0.265-0.59,0.591v2.835c0,0.326,0.265,0.591,0.59,0.591
								c0.327,0,0.592-0.265,0.592-0.591v-2.835C68.172,84.507,67.907,84.243,67.58,84.243z"/>
						</g>
					</g>
					<g>
						<g>
							<path fill="#A34430" d="M66.064,86.464c-0.326,0-0.591,0.265-0.591,0.591v2.835c0,0.327,0.265,0.591,0.591,0.591
								s0.59-0.264,0.59-0.591v-2.835C66.654,86.729,66.391,86.464,66.064,86.464z"/>
						</g>
					</g>
					<g>
						<g>
							<path fill="#A34430" d="M64.638,88.805c-0.326,0-0.591,0.264-0.591,0.591v2.835c0,0.327,0.265,0.591,0.591,0.591
								s0.591-0.265,0.591-0.591v-2.835C65.229,89.069,64.964,88.805,64.638,88.805z"/>
						</g>
					</g>
				</g>
			</g>
			<g>
				<g>
					<path fill="#EDCAAA" d="M62.319,65.831h-6.961c-0.132,0-0.238,0.031-0.238,0.069v0.276c0,0.039,0.106,0.069,0.238,0.069h6.961
						c0.132,0,0.238-0.03,0.238-0.069V65.9C62.558,65.861,62.451,65.831,62.319,65.831z"/>
				</g>
			</g>
			<g>
				<g>
					<g>
						<g>
							<path fill="#473D48" d="M56.916,69.675c-0.356,0-0.645,0.289-0.645,0.645v2.859c0,0.356,0.288,0.645,0.645,0.645
								s0.645-0.289,0.645-0.645V70.32C57.561,69.964,57.272,69.675,56.916,69.675z"/>
						</g>
					</g>
					<g>
						<g>
							<path fill="#473D48" d="M60.677,69.675c-0.356,0-0.645,0.289-0.645,0.645v2.859c0,0.356,0.288,0.645,0.645,0.645
								s0.645-0.289,0.645-0.645V70.32C61.321,69.964,61.033,69.675,60.677,69.675z"/>
						</g>
					</g>
					<g>
						<g>
							<path fill="#473D48" d="M58.788,69.523c-0.356,0-0.646,0.289-0.646,0.645v2.859c0,0.356,0.289,0.645,0.646,0.645
								s0.645-0.289,0.645-0.645v-2.859C59.433,69.813,59.145,69.523,58.788,69.523z"/>
						</g>
					</g>
				</g>
				<g>
					<g>
						<path fill="#EDCAAA" d="M62.319,73.167h-6.961c-0.132,0-0.238,0.106-0.238,0.238v0.951c0,0.131,0.106,0.237,0.238,0.237h6.961
							c0.132,0,0.238-0.106,0.238-0.237v-0.951C62.558,73.273,62.451,73.167,62.319,73.167z"/>
					</g>
				</g>
			</g>
		</g>
		<g>
			<g>
				<path fill="#DDD7D7" d="M37.503,119.955v3.751c9.154,5.14,19.707,8.084,30.952,8.084c12.263,0,23.705-3.496,33.403-9.53v-2.306
					H37.503z"/>
			</g>
		</g>
		<g>
			<g>
				<g>
					<g>
						<g>
							<rect x="100.352" y="95.125" fill="#664D49" width="0.708" height="2.833"/>
						</g>
					</g>
					<g>
						<g>
							<rect x="100.352" y="104.939" fill="#664D49" width="0.708" height="2.833"/>
						</g>
					</g>
					<g>
						<g>
							<rect x="100.352" y="114.957" fill="#664D49" width="0.708" height="2.833"/>
						</g>
					</g>
				</g>
				<g>
					<g>
						<polygon fill="#664D49" points="98.005,84.086 98.018,87.069 108.489,87.069 108.502,84.086 						"/>
					</g>
				</g>
			</g>
			<g>
				<g>
					<path fill="#664D49" d="M106.597,84.391l-3.282-5.484c-0.026-0.046-0.076-0.074-0.13-0.074h-0.001
						c-0.054,0-0.104,0.029-0.131,0.076l-3.144,5.484c-0.026,0.047-0.026,0.104,0.001,0.152c0.027,0.046,0.076,0.075,0.131,0.075
						h6.425c0.055,0,0.104-0.029,0.132-0.077S106.624,84.438,106.597,84.391z"/>
				</g>
			</g>
		</g>
		<g>
			<g>
				<g>
					<g>
						<g>
							<rect x="32.757" y="95.125" fill="#664D49" width="0.709" height="2.833"/>
						</g>
					</g>
					<g>
						<g>
							<rect x="32.757" y="104.939" fill="#664D49" width="0.709" height="2.833"/>
						</g>
					</g>
					<g>
						<g>
							<rect x="32.757" y="114.957" fill="#664D49" width="0.709" height="2.833"/>
						</g>
					</g>
				</g>
				<g>
					<g>
						<polygon fill="#664D49" points="30.411,84.086 30.424,87.069 40.896,87.069 40.908,84.086 						"/>
					</g>
				</g>
			</g>
			<g>
				<g>
					<path fill="#664D49" d="M39.002,84.391l-3.28-5.484c-0.027-0.046-0.077-0.074-0.13-0.074c-0.001,0-0.002,0-0.002,0
						c-0.055,0-0.104,0.029-0.13,0.076l-3.145,5.484c-0.027,0.047-0.027,0.104,0.001,0.152c0.027,0.046,0.076,0.075,0.131,0.075
						h6.425c0.055,0,0.104-0.029,0.132-0.077S39.03,84.438,39.002,84.391z"/>
				</g>
			</g>
		</g>
		<g>
			<g>
				<g>
					<path fill="#E2CCC7" d="M108.489,87.069H98.018l0.455,1.874l-0.444,30.961h7.34c1.048-0.753,2.078-1.53,3.076-2.344
						l-0.41-28.617L108.489,87.069z"/>
				</g>
			</g>
			<g>
				<g>
					<path fill="#DDD7D7" d="M98.018,120.664l0.011-0.759h-0.249c-0.078,0-0.144,0.06-0.15,0.139l-0.438,4.847
						c2.467-1.259,4.844-2.667,7.11-4.226H98.018z"/>
				</g>
			</g>
			<g>
				<g>
					<path fill="#DDD7D7" d="M98.028,119.905l-0.011,0.759h6.283c0.36-0.248,0.713-0.504,1.067-0.759H98.028z"/>
				</g>
			</g>
			<g>
				<g>
					<path fill="#E2CCC7" d="M40.896,87.069H30.424l0.455,1.874l-0.433,30.172c0.359,0.271,0.731,0.526,1.097,0.789h9.342
						L40.44,88.943L40.896,87.069z"/>
				</g>
			</g>
			<g>
				<g>
					<path fill="#D3B8B4" d="M41.285,120.043c-0.008-0.079-0.073-0.139-0.151-0.139h-0.249l0.011,0.759h-8.284
						c2.891,1.989,5.956,3.739,9.166,5.233c0.016-0.027,0.032-0.055,0.029-0.086L41.285,120.043z"/>
				</g>
			</g>
			<g>
				<g>
					<path fill="#D3B8B4" d="M40.885,119.905h-9.342c0.354,0.255,0.708,0.512,1.068,0.759h8.284L40.885,119.905z"/>
				</g>
			</g>
		</g>
	</g>
	<g>
		<g>
			<g>
				<path fill="#AAA5A2" d="M59.453,119.578v1.667c5.794,6.156,24.168,6.018,33.865,5.473c1.401-0.599,2.77-1.257,4.116-1.952
					C90.297,125.363,66.241,126.79,59.453,119.578z"/>
			</g>
		</g>
		<g>
			<g>
				<path fill="#BABABA" d="M59.453,121.244v9.898c2.941,0.419,5.944,0.648,9.002,0.648c8.827,0,17.229-1.811,24.863-5.073
					C83.621,127.262,65.247,127.4,59.453,121.244z"/>
			</g>
		</g>
	</g>
	<g>
		<g>
			<g>
				<path fill="#9B7A59" d="M48.787,122.744v5.918c0.608,0.198,1.218,0.392,1.834,0.573v-6.491H48.787z"/>
			</g>
		</g>
		<g>
			<g>
				<g>
					<polygon fill="#7B9B5D" points="49.121,114.313 43.621,125.91 55.287,125.91 					"/>
				</g>
			</g>
			<g>
				<g>
					<polygon fill="#85AA65" points="49.207,112.526 45.121,121.141 53.787,121.141 					"/>
				</g>
			</g>
			<g>
				<g>
					<polygon fill="#90B270" points="49.255,110.077 45.954,117.036 52.954,117.036 					"/>
				</g>
			</g>
		</g>
	</g>
</g>
</svg>
